<?xml version="1.0" standalone="no"?><svg xmlns="http://www.w3.org/2000/svg" viewBox="0 0 1440 320"><path fill="#063970" fill-opacity="1" d="M0,128L18.5,144C36.9,160,74,192,111,192C147.7,192,185,160,222,160C258.5,160,295,192,332,186.7C369.2,181,406,139,443,117.3C480,96,517,96,554,106.7C590.8,117,628,139,665,165.3C701.5,192,738,224,775,245.3C812.3,267,849,277,886,261.3C923.1,245,960,203,997,186.7C1033.8,171,1071,181,1108,181.3C1144.6,181,1182,171,1218,160C1255.4,149,1292,139,1329,117.3C1366.2,96,1403,64,1422,48L1440,32L1440,320L1421.5,320C1403.1,320,1366,320,1329,320C1292.3,320,1255,320,1218,320C1181.5,320,1145,320,1108,320C1070.8,320,1034,320,997,320C960,320,923,320,886,320C849.2,320,812,320,775,320C738.5,320,702,320,665,320C627.7,320,591,320,554,320C516.9,320,480,320,443,320C406.2,320,369,320,332,320C295.4,320,258,320,222,320C184.6,320,148,320,111,320C73.8,320,37,320,18,320L0,320Z"></path></svg>