<?xml version="1.0" standalone="no"?><svg xmlns="http://www.w3.org/2000/svg" viewBox="0 0 1440 320"><path fill="#5DA7DB" fill-opacity="1" d="M0,160L24,154.7C48,149,96,139,144,144C192,149,240,171,288,186.7C336,203,384,213,432,208C480,203,528,181,576,154.7C624,128,672,96,720,90.7C768,85,816,107,864,133.3C912,160,960,192,1008,176C1056,160,1104,96,1152,74.7C1200,53,1248,75,1296,106.7C1344,139,1392,181,1416,202.7L1440,224L1440,0L1416,0C1392,0,1344,0,1296,0C1248,0,1200,0,1152,0C1104,0,1056,0,1008,0C960,0,912,0,864,0C816,0,768,0,720,0C672,0,624,0,576,0C528,0,480,0,432,0C384,0,336,0,288,0C240,0,192,0,144,0C96,0,48,0,24,0L0,0Z"></path></svg>