<?xml version="1.0" standalone="no"?><svg xmlns="http://www.w3.org/2000/svg" viewBox="0 0 1440 320"><path fill="#5DA7DB" fill-opacity="1" d="M0,128L24,138.7C48,149,96,171,144,149.3C192,128,240,64,288,69.3C336,75,384,149,432,160C480,171,528,117,576,128C624,139,672,213,720,208C768,203,816,117,864,106.7C912,96,960,160,1008,186.7C1056,213,1104,203,1152,170.7C1200,139,1248,85,1296,69.3C1344,53,1392,75,1416,85.3L1440,96L1440,320L1416,320C1392,320,1344,320,1296,320C1248,320,1200,320,1152,320C1104,320,1056,320,1008,320C960,320,912,320,864,320C816,320,768,320,720,320C672,320,624,320,576,320C528,320,480,320,432,320C384,320,336,320,288,320C240,320,192,320,144,320C96,320,48,320,24,320L0,320Z"></path></svg>